<svg width="16" height="16" viewBox="0 0 16 16" fill="none" xmlns="http://www.w3.org/2000/svg">
<path fill-rule="evenodd" clip-rule="evenodd" d="M1.75004 8.66666C1.86055 8.66666 1.96653 8.71348 2.04467 8.79683C2.12281 8.88018 2.16671 8.99323 2.16671 9.1111V12.2222C2.16671 12.458 2.2545 12.6841 2.41079 12.8508C2.56707 13.0174 2.77903 13.1111 3.00004 13.1111H13C13.2211 13.1111 13.433 13.0174 13.5893 12.8508C13.7456 12.6841 13.8334 12.458 13.8334 12.2222V9.1111C13.8334 8.99323 13.8773 8.88018 13.9554 8.79683C14.0336 8.71348 14.1395 8.66666 14.25 8.66666C14.3605 8.66666 14.4665 8.71348 14.5447 8.79683C14.6228 8.88018 14.6667 8.99323 14.6667 9.1111V12.2222C14.6667 12.6937 14.4911 13.1459 14.1786 13.4793C13.866 13.8127 13.4421 14 13 14H3.00004C2.55801 14 2.13409 13.8127 1.82153 13.4793C1.50897 13.1459 1.33337 12.6937 1.33337 12.2222V9.1111C1.33337 8.99323 1.37727 8.88018 1.45541 8.79683C1.53355 8.71348 1.63953 8.66666 1.75004 8.66666Z" fill="#828282"/>
<path fill-rule="evenodd" clip-rule="evenodd" d="M5.00003 7.5C5.09379 7.40626 5.22095 7.3536 5.35353 7.3536C5.48611 7.3536 5.61327 7.40626 5.70703 7.5L8.00003 9.793L10.293 7.5C10.3392 7.45224 10.3943 7.41415 10.4553 7.38794C10.5163 7.36174 10.5819 7.34795 10.6483 7.34737C10.7147 7.34679 10.7806 7.35944 10.842 7.38458C10.9035 7.40972 10.9593 7.44685 11.0062 7.4938C11.0532 7.54074 11.0903 7.59657 11.1154 7.65802C11.1406 7.71947 11.1532 7.78531 11.1527 7.8517C11.1521 7.91809 11.1383 7.9837 11.1121 8.0447C11.0859 8.1057 11.0478 8.16087 11 8.20699L8.35403 10.854C8.30759 10.9006 8.25241 10.9375 8.19166 10.9627C8.13092 10.9879 8.0658 11.0009 8.00003 11.0009C7.93426 11.0009 7.86914 10.9879 7.8084 10.9627C7.74765 10.9375 7.69248 10.9006 7.64603 10.854L5.00003 8.20699C4.9063 8.11323 4.85364 7.98608 4.85364 7.8535C4.85364 7.72091 4.9063 7.59376 5.00003 7.5Z" fill="#828282"/>
<path fill-rule="evenodd" clip-rule="evenodd" d="M8 1C8.13261 1 8.25979 1.05268 8.35355 1.14645C8.44732 1.24021 8.5 1.36739 8.5 1.5V9.5C8.5 9.63261 8.44732 9.75979 8.35355 9.85355C8.25979 9.94732 8.13261 10 8 10C7.86739 10 7.74021 9.94732 7.64645 9.85355C7.55268 9.75979 7.5 9.63261 7.5 9.5V1.5C7.5 1.36739 7.55268 1.24021 7.64645 1.14645C7.74021 1.05268 7.86739 1 8 1Z" fill="#828282"/>
</svg>
