<svg width="16" height="16" viewBox="0 0 16 16" fill="none" xmlns="http://www.w3.org/2000/svg">
<g clip-path="url(#clip0_306_279)">
<path fill-rule="evenodd" clip-rule="evenodd" d="M7.9999 2.74799L7.2829 2.01099C5.5999 0.280988 2.5139 0.877988 1.39989 3.05299C0.876895 4.07599 0.758895 5.55299 1.71389 7.43799C2.63389 9.25299 4.5479 11.427 7.9999 13.795C11.4519 11.427 13.3649 9.25299 14.2859 7.43799C15.2409 5.55199 15.1239 4.07599 14.5999 3.05299C13.4859 0.877988 10.3999 0.279988 8.7169 2.00999L7.9999 2.74799ZM7.9999 15C-7.33311 4.86799 3.27889 -3.04001 7.82389 1.14299C7.88389 1.19799 7.94289 1.25499 7.9999 1.31399C8.05632 1.25504 8.11503 1.19833 8.17589 1.14399C12.7199 -3.04201 23.3329 4.86699 7.9999 15Z" fill="#828282"/>
</g>
<defs>
<clipPath id="clip0_306_279">
<rect width="16" height="16" fill="white"/>
</clipPath>
</defs>
</svg>
