<svg width="28" height="24" viewBox="0 0 28 24" fill="none" xmlns="http://www.w3.org/2000/svg">
<g clip-path="url(#clip0_306_520)">
<path d="M14.1379 0L6.67459 0.789103L0.896484 8.54566L14.1379 23.965L27.3792 8.54555L21.6012 0.789103L14.1379 0Z" fill="#FDB300"/>
<path d="M0.896484 8.54565L14.1379 23.965L6.25986 8.54565H0.896484Z" fill="#EB6C00"/>
<path d="M22.0158 8.54565L14.1379 23.965L27.3793 8.54565H22.0158Z" fill="#EB6C00"/>
<path d="M6.25989 8.54565L14.1379 23.965L22.0159 8.54565H6.25989Z" fill="#FDAD00"/>
<path d="M6.67459 0.789103L6.25977 8.54566L14.1379 0L6.67459 0.789103Z" fill="#FDD231"/>
<path d="M22.0158 8.54566L21.6012 0.789103L14.1379 0L22.0158 8.54566Z" fill="#FDD231"/>
<path d="M22.0159 8.54565H27.3793L21.6013 0.789093L22.0159 8.54565Z" fill="#FDAD00"/>
<path d="M0.896484 8.54565H6.25986L6.67459 0.789093L0.896484 8.54565Z" fill="#FDAD00"/>
<path d="M14.1379 0L6.25989 8.54555H22.0159L14.1379 0Z" fill="#FEEEB7"/>
</g>
<defs>
<clipPath id="clip0_306_520">
<rect width="26.4828" height="24" fill="white" transform="translate(0.896484)"/>
</clipPath>
</defs>
</svg>
