<svg width="630" height="403" viewBox="0 0 630 403" fill="none" xmlns="http://www.w3.org/2000/svg">
<g opacity="0.2">
<path d="M90 67.1666L45 134.333H135L90 67.1666Z" fill="#444444" fill-opacity="0.1"/>
<path d="M90 67.1667L135 0H45L90 67.1667Z" fill="black" fill-opacity="0.1"/>
<path d="M180 67.1667L225 0H135L180 67.1667Z" fill="#AAAAAA" fill-opacity="0.1"/>
<path d="M270 67.1666L225 134.333H315L270 67.1666Z" fill="#DDDDDD" fill-opacity="0.1"/>
<path d="M270 67.1667L315 0H225L270 67.1667Z" fill="#999999" fill-opacity="0.1"/>
<path d="M360 67.1666L315 134.333H405L360 67.1666Z" fill="black" fill-opacity="0.1"/>
<path d="M360 67.1667L405 0H315L360 67.1667Z" fill="#DDDDDD" fill-opacity="0.1"/>
<path d="M450 67.1666L405 134.333H495L450 67.1666Z" fill="#444444" fill-opacity="0.1"/>
<path d="M450 67.1667L495 0H405L450 67.1667Z" fill="white" fill-opacity="0.1"/>
<path d="M540 67.1666L495 134.333H585L540 67.1666Z" fill="#DDDDDD" fill-opacity="0.1"/>
<path d="M540 67.1667L585 0H495L540 67.1667Z" fill="#444444" fill-opacity="0.1"/>
<path d="M90 201.5L45 268.667H135L90 201.5Z" fill="#DDDDDD" fill-opacity="0.1"/>
<path d="M90 201.5L135 134.333H45L90 201.5Z" fill="black" fill-opacity="0.1"/>
<path d="M180 201.5L135 268.667H225L180 201.5Z" fill="#666666" fill-opacity="0.1"/>
<path d="M180 201.5L225 134.333H135L180 201.5Z" fill="#AAAAAA" fill-opacity="0.1"/>
<path d="M270 201.5L225 268.667H315L270 201.5Z" fill="#DDDDDD" fill-opacity="0.1"/>
<path d="M270 201.5L315 134.333H225L270 201.5Z" fill="#999999" fill-opacity="0.1"/>
<path d="M360 201.5L315 268.667H405L360 201.5Z" fill="#999999" fill-opacity="0.1"/>
<path d="M360 201.5L405 134.333H315L360 201.5Z" fill="white" fill-opacity="0.1"/>
<path d="M450 201.5L405 268.667H495L450 201.5Z" fill="black" fill-opacity="0.1"/>
<path d="M450 201.5L495 134.333H405L450 201.5Z" fill="#DDDDDD" fill-opacity="0.1"/>
<path d="M540 201.5L495 268.667H585L540 201.5Z" fill="#AAAAAA" fill-opacity="0.1"/>
<path d="M540 201.5L585 134.333H495L540 201.5Z" fill="#444444" fill-opacity="0.1"/>
<path d="M90 335.833L45 403H135L90 335.833Z" fill="#222222" fill-opacity="0.1"/>
<path d="M180 335.833L135 403H225L180 335.833Z" fill="black" fill-opacity="0.1"/>
<path d="M180 335.833L225 268.667H135L180 335.833Z" fill="#DDDDDD" fill-opacity="0.1"/>
<path d="M270 335.833L315 268.667H225L270 335.833Z" fill="black" fill-opacity="0.1"/>
<path d="M360 335.833L315 403H405L360 335.833Z" fill="black" fill-opacity="0.1"/>
<path d="M360 335.833L405 268.667H315L360 335.833Z" fill="#444444" fill-opacity="0.1"/>
<path d="M450 335.833L405 403H495L450 335.833Z" fill="#AAAAAA" fill-opacity="0.1"/>
<path d="M450 335.833L495 268.667H405L450 335.833Z" fill="#666666" fill-opacity="0.1"/>
<path d="M540 335.833L495 403H585L540 335.833Z" fill="#999999" fill-opacity="0.1"/>
<path d="M135 0L90 67.1667H180L135 0Z" fill="#999999" fill-opacity="0.1"/>
<path d="M225 0L180 67.1667H270L225 0Z" fill="#444444" fill-opacity="0.1"/>
<path d="M315 0L270 67.1667H360L315 0Z" fill="white" fill-opacity="0.1"/>
<path d="M495 0L450 67.1667H540L495 0Z" fill="black" fill-opacity="0.1"/>
<path d="M45 134.333L0 201.5H90L45 134.333Z" fill="#222222" fill-opacity="0.1"/>
<path d="M45 134.333L90 67.1666H0L45 134.333Z" fill="white" fill-opacity="0.1"/>
<path d="M135 134.333L90 201.5H180L135 134.333Z" fill="white" fill-opacity="0.1"/>
<path d="M135 134.333L180 67.1666H90L135 134.333Z" fill="#666666" fill-opacity="0.1"/>
<path d="M225 134.333L180 201.5H270L225 134.333Z" fill="#222222" fill-opacity="0.1"/>
<path d="M225 134.333L270 67.1666H180L225 134.333Z" fill="white" fill-opacity="0.1"/>
<path d="M315 134.333L270 201.5H360L315 134.333Z" fill="#444444" fill-opacity="0.1"/>
<path d="M315 134.333L360 67.1666H270L315 134.333Z" fill="#222222" fill-opacity="0.1"/>
<path d="M405 134.333L360 201.5H450L405 134.333Z" fill="#AAAAAA" fill-opacity="0.1"/>
<path d="M405 134.333L450 67.1666H360L405 134.333Z" fill="#666666" fill-opacity="0.1"/>
<path d="M495 134.333L450 201.5H540L495 134.333Z" fill="white" fill-opacity="0.1"/>
<path d="M495 134.333L540 67.1666H450L495 134.333Z" fill="#999999" fill-opacity="0.1"/>
<path d="M45 268.667L0 335.833H90L45 268.667Z" fill="black" fill-opacity="0.1"/>
<path d="M45 268.667L90 201.5H0L45 268.667Z" fill="#666666" fill-opacity="0.1"/>
<path d="M135 268.667L90 335.833H180L135 268.667Z" fill="#AAAAAA" fill-opacity="0.1"/>
<path d="M135 268.667L180 201.5H90L135 268.667Z" fill="#444444" fill-opacity="0.1"/>
<path d="M225 268.667L180 335.833H270L225 268.667Z" fill="#444444" fill-opacity="0.1"/>
<path d="M225 268.667L270 201.5H180L225 268.667Z" fill="#999999" fill-opacity="0.1"/>
<path d="M315 268.667L360 201.5H270L315 268.667Z" fill="#666666" fill-opacity="0.1"/>
<path d="M405 268.667L360 335.833H450L405 268.667Z" fill="#222222" fill-opacity="0.1"/>
<path d="M495 268.667L450 335.833H540L495 268.667Z" fill="white" fill-opacity="0.1"/>
<path d="M495 268.667L540 201.5H450L495 268.667Z" fill="#222222" fill-opacity="0.1"/>
<path d="M45 403L90 335.833H0L45 403Z" fill="#DDDDDD" fill-opacity="0.1"/>
<path d="M135 403L180 335.833H90L135 403Z" fill="#444444" fill-opacity="0.1"/>
<path d="M225 403L270 335.833H180L225 403Z" fill="white" fill-opacity="0.1"/>
<path d="M315 403L360 335.833H270L315 403Z" fill="#AAAAAA" fill-opacity="0.1"/>
<path d="M405 403L450 335.833H360L405 403Z" fill="white" fill-opacity="0.1"/>
<path d="M495 403L540 335.833H450L495 403Z" fill="#222222" fill-opacity="0.1"/>
<path d="M585 134.333L540 201.5H630L585 134.333Z" fill="#222222" fill-opacity="0.1"/>
<path d="M585 134.333L630 67.1666H540L585 134.333Z" fill="white" fill-opacity="0.1"/>
<path d="M585 268.667L540 335.833H630L585 268.667Z" fill="black" fill-opacity="0.1"/>
<path d="M585 268.667L630 201.5H540L585 268.667Z" fill="#666666" fill-opacity="0.1"/>
<path d="M585 403L630 335.833H540L585 403Z" fill="#DDDDDD" fill-opacity="0.1"/>
</g>
</svg>
