<svg width="1399" height="480" viewBox="0 0 1399 480" fill="none" xmlns="http://www.w3.org/2000/svg">
<mask id="mask0_306_337" style="mask-type:alpha" maskUnits="userSpaceOnUse" x="0" y="0" width="1440" height="480">
<rect width="1440" height="480" fill="#034CBC"/>
</mask>
<g mask="url(#mask0_306_337)">
<path opacity="0.15" d="M862.406 214.363C764.797 283.969 630.281 202.63 523.675 257.715C468.207 286.376 456.959 312.238 417.156 354.993C391.626 382.416 389.192 387.19 364.961 406.804C340.73 426.418 37 472.361 37 472.361V521H1444V42.0113H1170.25C1170.25 42.0113 1024.03 39.7502 954.012 99.1093C911.425 135.212 912.372 178.731 862.406 214.363Z" fill="#CCCED7"/>
<path opacity="0.15" d="M901.513 237.807C803.922 307.539 669.431 208.045 562.844 263.23C507.387 291.943 478.355 393.699 462.202 423.771C453.352 440.249 439.837 455.079 417.887 466.613C395.936 478.147 336 472.969 336 472.969V545H1483V95.2747H1226.34C1226.34 95.2747 1046.35 89.5075 987.777 130.82C936.657 166.874 951.47 202.111 901.513 237.807Z" fill="#CCCED7"/>
</g>
</svg>
