<svg width="720" height="111" viewBox="0 0 720 111" fill="none" xmlns="http://www.w3.org/2000/svg">
<path d="M166 0C166 110.456 76.456 200 -34 200L-34 0L166 0Z" fill="#FF743C"/>
<path d="M166 0V200C166 310.456 255.544 400 366 400V200C366 89.544 276.456 0 166 0Z" fill="#FF743C"/>
<path d="M766 100C766 44.772 721.228 0 666 0C610.772 0 566 44.772 566 100C566 155.228 610.772 200 666 200H766V100Z" fill="#D5E155"/>
<path d="M766 148.275C766 119.709 742.842 96.5518 714.275 96.5518C685.709 96.5518 662.552 119.709 662.552 148.275C662.552 176.842 685.709 200 714.275 200H766V148.275Z" fill="#FF743C"/>
<path d="M366 100C366 155.228 410.772 200 466 200C521.228 200 566 155.228 566 100C566 44.772 521.228 0 466 0H366V100Z" fill="#6ED47C"/>
<path d="M366 51.7251C366 80.2906 389.158 103.448 417.725 103.448C446.291 103.448 469.448 80.2906 469.448 51.7251C469.448 23.1576 446.291 0 417.725 0H366V51.7251Z" fill="#2D3652"/>
</svg>
