<svg width="308" height="56" viewBox="0 0 308 56" fill="none" xmlns="http://www.w3.org/2000/svg">
<path fill-rule="evenodd" clip-rule="evenodd" d="M34.3471 41.6828C33.7404 42.6643 32.9366 43.5212 31.9822 44.2043C30.8456 45.0095 29.5745 45.6243 28.2229 46.0226C26.5145 46.5205 24.7348 46.7578 22.9492 46.7257C20.9359 46.7257 19.1787 46.4291 17.6776 45.8357C16.2677 45.2997 14.9881 44.492 13.9183 43.463C12.8972 42.4549 12.105 41.2558 11.5911 39.941C11.0362 38.5251 10.7097 37.0367 10.623 35.5268C10.5194 33.649 10.4676 31.5722 10.4676 29.2965C10.4676 27.0236 10.5194 24.9468 10.623 23.0662C10.718 21.5698 11.0443 20.0951 11.5911 18.6903C12.0992 17.3614 12.8918 16.1488 13.9183 15.13C14.9887 14.1017 16.2682 13.2942 17.6776 12.7573C19.1765 12.1646 20.9337 11.868 22.9492 11.8673C24.7349 11.8359 26.5146 12.0738 28.2229 12.5725C29.565 12.9649 30.8246 13.5796 31.9445 14.3887C32.8799 15.0802 33.6689 15.936 34.2694 16.9102C34.8189 17.8004 35.1873 18.7821 35.3552 19.8033C35.3858 20.0876 35.4773 20.3627 35.6241 20.6116C35.7708 20.8605 35.9695 21.0778 36.2079 21.25C36.6315 21.5583 37.1479 21.7274 37.6802 21.7322H43.962C44.5207 21.7354 45.06 21.5366 45.4719 21.1756C45.6859 20.9989 45.851 20.7745 45.9525 20.5221C46.054 20.2698 46.0888 19.9973 46.0538 19.729C45.8722 17.6453 45.3358 15.6039 44.466 13.6856C43.5192 11.577 42.1037 9.69089 40.3181 8.15833C38.4573 6.52693 36.105 5.19224 33.2613 4.1542C30.4175 3.11617 26.9802 2.59713 22.9492 2.59713C19.383 2.59713 16.2306 3.10343 13.4919 4.11598C10.8851 5.04931 8.50871 6.48936 6.5128 8.34529C4.57368 10.19 3.05612 12.3998 2.05621 14.8348C0.969962 17.4647 0.328327 20.2433 0.155426 23.0662C0.0518015 24.9461 0 27.0229 0 29.2965C0 31.5701 0.0518015 33.6469 0.155426 35.5268C0.328086 38.3505 0.969725 41.1298 2.05621 43.7603C3.05557 46.1956 4.5732 48.4055 6.5128 50.2499C8.50825 52.1058 10.8848 53.5453 13.4919 54.477C16.2298 55.4903 19.3822 55.9973 22.9492 55.998C26.9816 55.998 30.419 55.479 33.2613 54.4409C36.1035 53.4029 38.4558 52.0675 40.3181 50.4346C42.0971 48.9114 43.5118 47.0393 44.466 44.9457C45.3452 43.0171 45.8819 40.9616 46.0538 38.864C46.0888 38.596 46.054 38.3239 45.9525 38.0719C45.851 37.8199 45.6859 37.5957 45.4719 37.4195C45.06 37.0585 44.5207 36.8597 43.962 36.863H37.6802C37.1596 36.8647 36.6548 37.0346 36.2479 37.3452C36.0187 37.5222 35.8286 37.7411 35.6887 37.9891C35.5488 38.2371 35.4618 38.5092 35.4329 38.7897C35.2658 39.8111 34.8973 40.7929 34.3471 41.6828ZM62.5301 17.2075C60.3246 17.9927 58.2975 19.1761 56.5591 20.6934C54.8862 22.1665 53.5182 23.9277 52.5266 25.885C51.5153 27.8819 50.9231 30.0492 50.7835 32.2641C50.7302 32.708 50.6924 33.2773 50.6658 33.9698C50.6391 34.6623 50.628 35.3548 50.628 36.0473C50.628 36.7398 50.6391 37.4195 50.6658 38.0866C50.6924 38.7536 50.7302 39.3101 50.7835 39.754C50.9715 41.9657 51.5755 44.1268 52.5665 46.1331C53.529 48.0866 54.8859 49.8388 56.5591 51.2886C58.3052 52.7866 60.3309 53.9563 62.5301 54.7362C67.5225 56.4186 72.9659 56.4186 77.9583 54.7362C80.1565 53.9557 82.1815 52.7861 83.9271 51.2886C85.5996 49.8382 86.9564 48.0862 87.9196 46.1331C88.9093 44.1262 89.514 41.9655 89.7049 39.754C89.7597 39.1998 89.7849 38.6433 89.7804 38.0866V33.9698C89.7847 31.1813 89.1638 28.4244 87.9595 25.885C86.9671 23.9282 85.5993 22.1671 83.9271 20.6934C82.1892 19.1766 80.1628 17.9932 77.9583 17.2075C72.9659 15.5252 67.5225 15.5252 62.5301 17.2075ZM79.7014 34.1185V37.8635C79.7089 38.3468 79.683 38.8301 79.6237 39.3101C79.4705 40.8438 79.0959 42.1169 78.5001 43.1295C77.9619 44.0814 77.2068 44.9054 76.2907 45.5405C75.4285 46.1261 74.4534 46.542 73.4218 46.764C71.3281 47.2086 69.158 47.2086 67.0644 46.764C66.0328 46.542 65.0576 46.1261 64.1955 45.5405C63.2788 44.906 62.5235 44.0819 61.986 43.1295C61.3909 42.1162 61.0164 40.8431 60.8624 39.3101C60.7983 38.8301 60.7598 38.3473 60.747 37.8635C60.7203 37.2453 60.707 36.6152 60.707 35.973C60.707 35.3307 60.7203 34.7126 60.747 34.1185C60.7714 33.5237 60.8092 33.0309 60.8624 32.6337C61.0179 31.1021 61.3924 29.829 61.986 28.8143C62.5236 27.8625 63.2788 27.0391 64.1955 26.4054C65.057 25.8183 66.0323 25.4016 67.0644 25.1798C69.158 24.7351 71.3281 24.7351 73.4218 25.1798C74.4538 25.4016 75.4292 25.8183 76.2907 26.4054C77.2067 27.0397 77.9618 27.8629 78.5001 28.8143C79.0952 29.8297 79.4697 31.1028 79.6237 32.6337C79.6805 33.1267 79.7065 33.6225 79.7014 34.1185ZM105.171 17.3924C103.132 18.3174 101.312 19.6299 99.8216 21.25C98.3248 22.8934 97.1432 24.7768 96.3309 26.8133C95.4793 28.911 94.9947 31.1287 94.8965 33.3772C94.8454 34.1185 94.8195 34.9838 94.8187 35.973C94.818 36.9621 94.8439 37.8274 94.8965 38.5688C94.9947 40.8172 95.4793 43.0348 96.3309 45.1326C97.1426 47.1687 98.3244 49.0514 99.8216 50.6938C101.312 52.3144 103.132 53.6271 105.171 54.5514C107.365 55.5373 109.764 56.0321 112.188 55.998C113.635 56.0145 115.079 55.8647 116.489 55.5519C117.638 55.2951 118.756 54.9227 119.824 54.4409C120.692 54.047 121.511 53.5618 122.267 52.9943C122.848 52.5535 123.392 52.0698 123.894 51.5477V53.2535C123.901 53.7828 124.124 54.2886 124.515 54.6629C124.906 55.0372 125.435 55.2503 125.988 55.2567H131.879C132.433 55.2503 132.961 55.0372 133.353 54.6629C133.744 54.2886 133.967 53.7828 133.973 53.2535V4.59813C133.967 4.06892 133.744 3.56311 133.353 3.18907C132.962 2.81503 132.433 2.60254 131.879 2.59713H125.988C125.435 2.60254 124.906 2.81503 124.515 3.18907C124.123 3.56311 123.901 4.06892 123.894 4.59813V20.396C123.393 19.8741 122.848 19.3911 122.267 18.9515C121.512 18.3826 120.693 17.8973 119.824 17.5049C118.757 17.0224 117.639 16.6493 116.489 16.3918C115.079 16.0791 113.635 15.9293 112.188 15.9458C109.764 15.9117 107.365 16.4065 105.171 17.3924ZM108.077 26.9598C109.834 25.5515 111.979 24.847 114.513 24.8462C117.044 24.8462 119.176 25.5883 120.91 27.0724C122.64 28.5551 123.635 30.5824 123.894 33.1541C124.102 35.0274 124.102 36.9164 123.894 38.7897C123.635 41.4598 122.64 43.5118 120.91 44.9457C119.176 46.3816 117.043 47.0989 114.513 47.0975C111.979 47.0975 109.834 46.393 108.077 44.9839C106.319 43.5755 105.285 41.2637 104.975 38.0483C104.822 36.6679 104.822 35.2759 104.975 33.8955C105.286 30.6815 106.32 28.3696 108.077 26.9598ZM142.036 44.0939C142.846 46.4296 144.138 48.5858 145.835 50.4346C147.492 52.2177 149.544 53.6242 151.842 54.5514C154.334 55.5421 157.013 56.0344 159.711 55.998C162.607 55.998 165.153 55.627 167.35 54.8849C169.322 54.2529 171.188 53.3537 172.893 52.2148C174.391 51.176 175.516 50.1132 176.265 49.0263C177.015 47.9394 177.416 47.0493 177.467 46.3561C177.494 46.0937 177.456 45.8287 177.355 45.5834C177.254 45.338 177.093 45.1194 176.885 44.9457C176.482 44.565 175.939 44.352 175.373 44.353H169.171C168.67 44.3336 168.169 44.4095 167.699 44.5761C167.205 44.8004 166.736 45.0738 166.302 45.3917C165.528 45.9357 164.663 46.3494 163.744 46.6153C162.709 46.9382 161.365 47.0989 159.711 47.0975C158.584 47.0984 157.462 46.949 156.378 46.6536C155.345 46.3803 154.372 45.9274 153.51 45.3174C152.692 44.7347 152.017 43.9879 151.533 43.1295C151.026 42.2041 150.772 41.1706 150.796 40.1258H176.692C177.245 40.1194 177.774 39.9064 178.165 39.5321C178.556 39.1578 178.779 38.6519 178.786 38.1226V34.7855C178.795 32.3165 178.336 29.8663 177.429 27.5546C176.572 25.3312 175.268 23.2902 173.59 21.5473C171.894 19.814 169.851 18.426 167.581 17.4667C165.102 16.4278 162.418 15.9092 159.711 15.9458C157.001 15.9093 154.315 16.4415 151.842 17.5049C149.547 18.5033 147.499 19.9564 145.835 21.7682C144.143 23.6348 142.852 25.8026 142.036 28.1473C141.144 30.6675 140.699 33.3124 140.717 35.973C140.683 38.7312 141.128 41.4756 142.036 44.0939ZM163.784 25.4771C164.749 25.8387 165.622 26.3952 166.342 27.1086C166.968 27.7463 167.444 28.5056 167.736 29.3348C168.007 30.0944 168.201 30.8768 168.318 31.6714H150.796C150.92 30.8621 151.169 30.0747 151.533 29.3348C151.936 28.4977 152.502 27.742 153.201 27.1086C153.977 26.4087 154.884 25.8551 155.874 25.4771C157.098 25.0294 158.402 24.8151 159.711 24.8462C161.366 24.8462 162.723 25.0565 163.784 25.4771ZM223.132 33.3028C223.143 31.0666 222.87 28.8374 222.317 26.6646C221.822 24.6565 220.884 22.7728 219.566 21.1395C218.203 19.5038 216.448 18.2061 214.45 17.3562C212.329 16.4173 209.693 15.9472 206.54 15.9458C204.06 15.9458 201.915 16.3664 200.105 17.2075C198.353 18.0095 196.754 19.0873 195.375 20.396V18.6903C195.369 18.1614 195.147 17.6559 194.756 17.2819C194.365 16.9079 193.836 16.6952 193.284 16.6892H187.39C186.837 16.6956 186.309 16.9083 185.918 17.2822C185.527 17.656 185.304 18.1613 185.296 18.6903V53.2535C185.304 53.7825 185.527 54.2878 185.918 54.6619C186.309 55.036 186.837 55.2494 187.39 55.2567H193.284C193.837 55.2498 194.365 55.0364 194.756 54.6622C195.146 54.2879 195.369 53.7824 195.375 53.2535V34.4138C195.375 31.4483 196.164 29.0756 197.74 27.2955C199.317 25.5154 201.475 24.6253 204.215 24.6253C207.211 24.6253 209.433 25.5154 210.881 27.2955C212.33 29.0756 213.054 31.4483 213.053 34.4138V53.2535C213.06 53.7828 213.282 54.2886 213.674 54.6629C214.065 55.0372 214.594 55.2503 215.147 55.2567H221.038C221.591 55.2503 222.12 55.0372 222.511 54.6629C222.903 54.2886 223.125 53.7828 223.132 53.2535V33.3028ZM256.391 53.9948C256.754 54.315 257.158 54.5892 257.595 54.8106C258.201 55.123 258.883 55.2769 259.571 55.2567H267.092C267.336 55.2571 267.578 55.2113 267.804 55.122C268.03 55.0327 268.236 54.9016 268.409 54.7362C268.581 54.5708 268.718 54.3744 268.812 54.1583C268.905 53.9421 268.953 53.7104 268.953 53.4765C268.956 53.2457 268.902 53.0173 268.797 52.8096C268.63 52.5341 268.421 52.2836 268.178 52.0661L248.406 33.8955L266.47 19.952C266.883 19.6546 267.129 19.3948 267.207 19.1725C267.286 18.9458 267.326 18.7083 267.325 18.4693C267.326 18.2353 267.278 18.0034 267.185 17.787C267.092 17.5707 266.955 17.3741 266.782 17.2086C266.609 17.0432 266.404 16.912 266.177 16.8229C265.951 16.7338 265.709 16.6883 265.464 16.6892H257.555C256.916 16.6673 256.284 16.8214 255.734 17.1332C255.315 17.3805 254.913 17.653 254.53 17.9489L241.585 27.9625V4.59813C241.577 4.0692 241.354 3.56395 240.963 3.19011C240.572 2.81627 240.044 2.60346 239.491 2.59713H233.597C233.044 2.60309 232.516 2.81582 232.125 3.1898C231.734 3.56378 231.512 4.06928 231.506 4.59813V53.2535C231.512 53.7824 231.735 54.2879 232.125 54.6622C232.516 55.0364 233.044 55.2498 233.597 55.2567H239.491C240.044 55.2494 240.572 55.036 240.963 54.6619C241.354 54.2878 241.577 53.7825 241.585 53.2535V40.4975L256.391 53.9948ZM273.527 27.3677C273.893 27.6672 274.362 27.8262 274.844 27.8138H282.054C282.491 27.8189 282.925 27.7432 283.333 27.5908C283.805 27.3905 284.238 27.1147 284.614 26.7751C285.238 26.2135 285.942 25.7393 286.706 25.3667C287.43 25.0204 288.438 24.847 289.73 24.8462C291.797 24.8462 293.529 25.2668 294.924 26.108C296.319 26.9492 297.017 28.3831 297.018 30.4096L284.381 32.4871C280.142 33.1796 276.756 34.4895 274.224 36.4169C271.692 38.3443 270.426 41.0144 270.425 44.4273C270.406 46.0201 270.735 47.599 271.393 49.0624C272.029 50.4592 272.967 51.7111 274.146 52.7352C275.428 53.8239 276.933 54.6444 278.565 55.1441C280.493 55.7385 282.511 56.027 284.536 55.998C287.687 55.998 290.284 55.491 292.328 54.477C294.369 53.4638 295.932 52.2402 297.018 50.8064V53.2535C297.024 53.7828 297.247 54.2886 297.638 54.6629C298.03 55.0372 298.558 55.2503 299.112 55.2567H305.003C305.556 55.2503 306.085 55.0372 306.476 54.6629C306.867 54.2886 307.09 53.7828 307.097 53.2535V31.4484C307.097 28.9269 306.683 26.6894 305.856 24.7358C305.095 22.8743 303.887 21.2102 302.329 19.8777C300.735 18.5551 298.874 17.5583 296.862 16.9484C294.556 16.2536 292.148 15.9151 289.73 15.9458C287.095 15.9458 284.782 16.28 282.791 16.9484C280.974 17.527 279.272 18.3914 277.753 19.506C276.492 20.4279 275.415 21.5589 274.573 22.8452C273.892 23.8675 273.406 24.9975 273.138 26.1824C273.078 26.3948 273.082 26.6194 273.151 26.8296C273.22 27.0397 273.35 27.2265 273.527 27.3677ZM282.171 46.3561C281.059 45.8612 280.503 45.095 280.504 44.0577C280.486 43.5313 280.604 43.0088 280.848 42.5365C281.092 42.0641 281.453 41.6564 281.9 41.3493C282.831 40.6823 284.356 40.1754 286.475 39.8284L297.018 38.0483V38.7897C297.015 39.8396 296.777 40.8768 296.321 41.8315C295.829 42.854 295.115 43.7644 294.227 44.5017C293.214 45.3386 292.043 45.9805 290.776 46.3922C289.267 46.8846 287.68 47.1232 286.086 47.0975C284.74 47.1277 283.404 46.8746 282.171 46.3561ZM285.467 8.97405C285.235 9.24905 285.1 9.58616 285.078 9.93846C285.078 10.7308 285.492 11.1266 286.319 11.1259H290.583C291.409 11.1259 292.055 11.002 292.521 10.7542C292.993 10.5034 293.435 10.205 293.84 9.86409L303.375 2.37408C303.5 2.25891 303.599 2.12055 303.666 1.96749C303.732 1.81442 303.766 1.6499 303.764 1.48404C303.764 0.496275 303.272 0.00204307 302.289 0.00133499H294.924C294.435 -0.0111312 293.949 0.0638022 293.489 0.222263C293.103 0.370958 292.625 0.766791 292.055 1.40972L285.467 8.97405Z" fill="#023059"/>
</svg>
