<svg width="648" height="119" viewBox="0 0 648 119" fill="none" xmlns="http://www.w3.org/2000/svg">
<path fill-rule="evenodd" clip-rule="evenodd" d="M203.847 81.8467C202.86 83.5148 201.553 84.9713 200.001 86.1323C198.153 87.5008 196.087 88.5458 193.889 89.2228C191.111 90.0691 188.217 90.4724 185.314 90.4179C182.041 90.4179 179.184 89.9137 176.743 88.9052C174.45 87.994 172.37 86.6213 170.63 84.8723C168.97 83.1589 167.682 81.1208 166.847 78.8861C165.944 76.4796 165.413 73.9498 165.272 71.3836C165.104 68.1919 165.02 64.6621 165.02 60.7941C165.02 56.9309 165.104 53.4011 165.272 50.2047C165.427 47.6613 165.957 45.1549 166.847 42.7671C167.673 40.5085 168.961 38.4474 170.63 36.7159C172.371 34.9681 174.451 33.5956 176.743 32.6831C179.18 31.6758 182.037 31.1715 185.314 31.1703C188.218 31.1169 191.111 31.5214 193.889 32.3689C196.071 33.0359 198.119 34.0807 199.94 35.4559C201.461 36.6313 202.744 38.0858 203.72 39.7416C204.614 41.2547 205.213 42.9231 205.486 44.659C205.535 45.1421 205.684 45.6097 205.923 46.0327C206.161 46.4557 206.484 46.8251 206.872 47.1177C207.561 47.6418 208.401 47.9293 209.266 47.9373H219.48C220.388 47.9429 221.265 47.605 221.935 46.9913C222.283 46.6911 222.551 46.3096 222.716 45.8807C222.881 45.4517 222.938 44.9887 222.881 44.5326C222.586 40.991 221.714 37.5213 220.299 34.2608C218.76 30.6769 216.458 27.4712 213.555 24.8664C210.53 22.0936 206.705 19.825 202.081 18.0607C197.457 16.2964 191.868 15.4142 185.314 15.4142C179.516 15.4142 174.39 16.2748 169.937 17.9958C165.699 19.5821 161.835 22.0297 158.589 25.1842C155.437 28.3195 152.969 32.0755 151.343 36.2141C149.577 40.6841 148.534 45.4067 148.253 50.2047C148.084 53.3999 148 56.9297 148 60.7941C148 64.6585 148.084 68.1883 148.253 71.3836C148.533 76.1828 149.577 80.9067 151.343 85.3777C152.968 89.5168 155.436 93.2729 158.589 96.4077C161.834 99.5622 165.698 102.009 169.937 103.592C174.389 105.315 179.514 106.176 185.314 106.178C191.871 106.178 197.46 105.295 202.081 103.531C206.702 101.767 210.527 99.497 213.555 96.7218C216.448 94.1328 218.748 90.9508 220.299 87.3924C221.729 84.1144 222.601 80.6208 222.881 77.0556C222.938 76.6001 222.881 76.1376 222.716 75.7093C222.551 75.2809 222.283 74.9 221.935 74.6005C221.265 73.9868 220.388 73.649 219.48 73.6546H209.266C208.419 73.6575 207.599 73.9463 206.937 74.4742C206.564 74.775 206.255 75.1471 206.028 75.5686C205.8 75.9901 205.659 76.4526 205.612 76.9293C205.34 78.6654 204.741 80.3341 203.847 81.8467ZM249.671 40.247C246.085 41.5814 242.789 43.5928 239.962 46.1717C237.242 48.6755 235.018 51.669 233.405 54.9957C231.761 58.3898 230.798 62.0734 230.571 65.838C230.485 66.5926 230.423 67.5601 230.38 68.7371C230.337 69.9141 230.318 71.0911 230.318 72.2681C230.318 73.4451 230.337 74.6005 230.38 75.7342C230.423 76.8679 230.485 77.8138 230.571 78.5684C230.877 82.3275 231.859 86.0005 233.47 89.4106C235.035 92.7309 237.241 95.709 239.962 98.1732C242.801 100.719 246.095 102.707 249.671 104.033C257.788 106.892 266.639 106.892 274.756 104.033C278.33 102.706 281.623 100.719 284.461 98.1732C287.18 95.708 289.386 92.7302 290.953 89.4106C292.562 85.9996 293.545 82.3271 293.855 78.5684C293.944 77.6263 293.985 76.6804 293.978 75.7342V68.7371C293.985 63.9976 292.975 59.3119 291.017 54.9957C289.404 51.6698 287.18 48.6765 284.461 46.1717C281.635 43.5936 278.34 41.5823 274.756 40.247C266.639 37.3875 257.788 37.3875 249.671 40.247ZM277.59 68.9899V75.3551C277.602 76.1766 277.56 76.9979 277.464 77.8138C277.215 80.4206 276.606 82.5844 275.637 84.3054C274.762 85.9235 273.534 87.324 272.045 88.4033C270.643 89.3987 269.057 90.1055 267.38 90.4829C263.976 91.2387 260.447 91.2387 257.043 90.4829C255.366 90.1055 253.78 89.3987 252.378 88.4033C250.888 87.325 249.66 85.9242 248.786 84.3054C247.818 82.5832 247.209 80.4194 246.959 77.8138C246.855 76.998 246.792 76.1773 246.771 75.3551C246.728 74.3044 246.706 73.2334 246.706 72.1418C246.706 71.0503 246.728 69.9996 246.771 68.9899C246.811 67.979 246.872 67.1413 246.959 66.4662C247.212 63.863 247.821 61.6991 248.786 59.9745C249.66 58.3567 250.888 56.9572 252.378 55.8803C253.779 54.8824 255.365 54.1741 257.043 53.7971C260.447 53.0413 263.976 53.0413 267.38 53.7971C269.058 54.1741 270.644 54.8824 272.045 55.8803C273.534 56.9582 274.762 58.3575 275.637 59.9745C276.605 61.7003 277.213 63.8642 277.464 66.4662C277.556 67.3041 277.598 68.1469 277.59 68.9899ZM319.002 40.5611C315.688 42.1333 312.728 44.3642 310.305 47.1177C307.871 49.911 305.95 53.1121 304.629 56.5735C303.244 60.139 302.456 63.9082 302.297 67.7298C302.214 68.9899 302.171 70.4605 302.17 72.1418C302.169 73.8231 302.211 75.2937 302.297 76.5538C302.456 80.3754 303.244 84.1446 304.629 87.7101C305.949 91.1708 307.87 94.3708 310.305 97.1622C312.727 99.9168 315.687 102.148 319.002 103.719C322.569 105.395 326.471 106.235 330.411 106.178C332.764 106.206 335.112 105.951 337.405 105.419C339.274 104.983 341.092 104.35 342.828 103.531C344.239 102.861 345.571 102.037 346.799 101.072C347.744 100.323 348.629 99.5011 349.446 98.6136V101.513C349.456 102.412 349.818 103.272 350.455 103.908C351.091 104.545 351.951 104.907 352.85 104.918H362.429C363.328 104.907 364.188 104.545 364.824 103.908C365.46 103.272 365.823 102.412 365.833 101.513V18.8153C365.823 17.9158 365.461 17.0561 364.825 16.4203C364.188 15.7846 363.328 15.4234 362.429 15.4142H352.85C351.951 15.4234 351.091 15.7846 350.454 16.4203C349.818 17.0561 349.456 17.9158 349.446 18.8153V45.6663C348.63 44.7792 347.745 43.9582 346.799 43.2112C345.572 42.2442 344.24 41.4194 342.828 40.7524C341.092 39.9324 339.274 39.2982 337.405 38.8605C335.112 38.329 332.764 38.0745 330.411 38.1024C326.471 38.0445 322.569 38.8854 319.002 40.5611ZM323.728 56.8226C326.584 54.4288 330.072 53.2314 334.191 53.2302C338.307 53.2302 341.774 54.4914 344.593 57.0139C347.406 59.534 349.023 62.9797 349.446 67.3507C349.783 70.5347 349.783 73.7453 349.446 76.9293C349.023 81.4676 347.406 84.9553 344.593 87.3924C341.773 89.8331 338.306 91.0521 334.191 91.0497C330.072 91.0497 326.584 89.8523 323.728 87.4574C320.869 85.0636 319.187 81.1343 318.684 75.6692C318.435 73.323 318.435 70.957 318.684 68.6108C319.19 63.1482 320.871 59.2187 323.728 56.8226ZM378.943 85.9446C380.26 89.9145 382.36 93.5794 385.12 96.7218C387.814 99.7523 391.151 102.143 394.887 103.719C398.94 105.403 403.294 106.24 407.682 106.178C412.39 106.178 416.53 105.547 420.102 104.286C423.308 103.212 426.342 101.683 429.114 99.7474C431.551 97.9819 433.379 96.1754 434.598 94.3281C435.817 92.4807 436.468 90.9679 436.551 89.7897C436.596 89.3436 436.534 88.8933 436.369 88.4762C436.205 88.0592 435.943 87.6876 435.606 87.3924C434.951 86.7454 434.067 86.3833 433.147 86.3851H423.063C422.248 86.3521 421.434 86.481 420.669 86.7642C419.866 87.1455 419.104 87.6102 418.398 88.1505C417.14 89.075 415.733 89.7783 414.239 90.2302C412.556 90.779 410.371 91.0521 407.682 91.0497C405.849 91.0513 404.025 90.7973 402.263 90.2952C400.582 89.8307 399.001 89.0609 397.598 88.0242C396.269 87.0339 395.172 85.7646 394.385 84.3054C393.56 82.7327 393.147 80.976 393.186 79.2002H435.291C436.191 79.1894 437.051 78.8273 437.687 78.1911C438.323 77.5549 438.685 76.6952 438.696 75.7956V70.1235C438.712 65.927 437.964 61.7626 436.49 57.8335C435.097 54.0545 432.976 50.5855 430.248 47.6231C427.491 44.677 424.168 42.318 420.478 40.6875C416.446 38.9216 412.083 38.0402 407.682 38.1024C403.275 38.0404 398.907 38.945 394.887 40.7524C391.155 42.4493 387.826 44.9192 385.12 47.9986C382.368 51.1712 380.269 54.8557 378.943 58.8409C377.493 63.1243 376.768 67.6197 376.798 72.1418C376.743 76.8299 377.467 81.4945 378.943 85.9446ZM414.304 54.3025C415.873 54.9171 417.292 55.8629 418.463 57.0754C419.482 58.1593 420.255 59.4498 420.73 60.8591C421.17 62.1503 421.486 63.48 421.676 64.8306H393.186C393.388 63.4551 393.792 62.1169 394.385 60.8591C395.039 59.4363 395.959 58.152 397.096 57.0754C398.358 55.8858 399.833 54.9449 401.443 54.3025C403.433 53.5414 405.553 53.1772 407.682 53.2302C410.372 53.2302 412.579 53.5876 414.304 54.3025ZM510.801 67.6034C510.819 63.8027 510.374 60.0139 509.476 56.3208C508.67 52.9077 507.145 49.706 505.002 46.93C502.786 44.1498 499.932 41.9442 496.684 40.4997C493.236 38.9039 488.949 38.1048 483.823 38.1024C479.79 38.1024 476.303 38.8172 473.36 40.247C470.511 41.61 467.912 43.4419 465.67 45.6663V42.7671C465.66 41.8682 465.298 41.009 464.662 40.3734C464.027 39.7378 463.168 39.3762 462.269 39.3661H452.687C451.788 39.3768 450.928 39.7384 450.292 40.3738C449.656 41.0092 449.294 41.8681 449.282 42.7671V101.513C449.294 102.412 449.657 103.271 450.293 103.907C450.929 104.542 451.788 104.905 452.687 104.918H462.269C463.168 104.906 464.027 104.543 464.662 103.907C465.297 103.271 465.659 102.412 465.67 101.513V69.4917C465.67 64.4515 466.951 60.4186 469.515 57.3931C472.078 54.3675 475.588 52.8547 480.043 52.8547C484.914 52.8547 488.526 54.3675 490.882 57.3931C493.237 60.4186 494.414 64.4515 494.413 69.4917V101.513C494.423 102.412 494.786 103.272 495.422 103.908C496.058 104.545 496.918 104.907 497.817 104.918H507.396C508.296 104.907 509.155 104.545 509.791 103.908C510.428 103.272 510.79 102.412 510.801 101.513V67.6034ZM564.878 102.773C565.468 103.317 566.126 103.783 566.835 104.159C567.821 104.69 568.929 104.952 570.048 104.918H582.277C582.674 104.918 583.068 104.84 583.435 104.689C583.803 104.537 584.137 104.314 584.418 104.033C584.699 103.752 584.922 103.418 585.073 103.051C585.225 102.683 585.303 102.289 585.302 101.892C585.307 101.5 585.221 101.111 585.05 100.758C584.777 100.29 584.438 99.8644 584.042 99.4947L551.895 68.6108L581.266 44.9117C581.937 44.4062 582.337 43.9646 582.465 43.5867C582.593 43.2014 582.658 42.7977 582.656 42.3916C582.657 41.9938 582.58 41.5997 582.429 41.2319C582.277 40.8642 582.054 40.5301 581.773 40.2488C581.492 39.9676 581.158 39.7447 580.79 39.5932C580.422 39.4417 580.028 39.3645 579.63 39.3661H566.77C565.731 39.3287 564.703 39.5906 563.809 40.1206C563.128 40.5409 562.475 41.004 561.852 41.507L540.803 58.5268V18.8153C540.792 17.9163 540.429 17.0575 539.793 16.4221C539.157 15.7867 538.298 15.425 537.399 15.4142H527.817C526.918 15.4244 526.059 15.7859 525.423 16.4216C524.787 17.0572 524.426 17.9164 524.416 18.8153V101.513C524.426 102.412 524.788 103.271 525.423 103.907C526.059 104.543 526.918 104.906 527.817 104.918H537.399C538.298 104.905 539.157 104.542 539.793 103.907C540.428 103.271 540.791 102.412 540.803 101.513V79.832L564.878 102.773ZM592.74 57.5158C593.335 58.0249 594.098 58.295 594.881 58.274H606.604C607.315 58.2827 608.021 58.154 608.684 57.895C609.452 57.5546 610.156 57.0857 610.767 56.5085C611.782 55.554 612.927 54.7481 614.168 54.1147C615.345 53.5262 616.984 53.2314 619.085 53.2302C622.447 53.2302 625.262 53.945 627.53 55.3748C629.799 56.8045 630.934 59.2416 630.935 62.686L610.388 66.217C603.495 67.394 597.991 69.6205 593.874 72.8963C589.757 76.1722 587.697 80.7106 587.696 86.5114C587.665 89.2185 588.201 91.9022 589.27 94.3894C590.304 96.7636 591.83 98.8913 593.747 100.632C595.831 102.482 598.278 103.877 600.932 104.726C604.067 105.737 607.347 106.227 610.641 106.178C615.764 106.178 619.987 105.316 623.31 103.592C626.628 101.87 629.169 99.7906 630.935 97.3536V101.513C630.946 102.412 631.308 103.272 631.944 103.908C632.58 104.545 633.44 104.907 634.34 104.918H643.918C644.818 104.907 645.677 104.545 646.314 103.908C646.95 103.272 647.312 102.412 647.323 101.513V64.4515C647.323 60.1659 646.65 56.3629 645.305 53.0424C644.067 49.8786 642.103 47.0501 639.571 44.7854C636.978 42.5374 633.954 40.8431 630.682 39.8065C626.932 38.6256 623.017 38.0504 619.085 38.1024C614.801 38.1024 611.04 38.6704 607.803 39.8065C604.849 40.79 602.081 42.2592 599.611 44.1535C597.561 45.7205 595.81 47.6429 594.44 49.8292C593.333 51.5667 592.543 53.4872 592.108 55.5012C592.009 55.8622 592.016 56.244 592.128 56.6012C592.24 56.9583 592.453 57.2758 592.74 57.5158ZM606.795 89.7897C604.987 88.9485 604.083 87.6463 604.084 85.8832C604.055 84.9884 604.248 84.1004 604.644 83.2976C605.04 82.4947 605.628 81.8017 606.355 81.2798C607.868 80.1461 610.347 79.2845 613.792 78.6948L630.935 75.6692V76.9293C630.93 78.7139 630.544 80.4767 629.801 82.0994C629.002 83.8373 627.842 85.3846 626.397 86.6378C624.751 88.0602 622.846 89.1513 620.786 89.851C618.332 90.6879 615.753 91.0935 613.161 91.0497C610.972 91.101 608.799 90.6709 606.795 89.7897ZM612.153 26.2528C611.777 26.7202 611.557 27.2932 611.522 27.892C611.522 29.2387 612.194 29.9115 613.54 29.9103H620.472C621.815 29.9103 622.866 29.6997 623.624 29.2785C624.391 28.8522 625.11 28.345 625.768 27.7656L641.272 15.0351C641.475 14.8394 641.635 14.6042 641.744 14.3441C641.853 14.0839 641.907 13.8043 641.903 13.5224C641.903 11.8435 641.104 11.0035 639.506 11.0023H627.53C626.736 10.9811 625.945 11.1084 625.198 11.3778C624.57 11.6305 623.792 12.3033 622.866 13.396L612.153 26.2528Z" fill="black"/>
<path fill-rule="evenodd" clip-rule="evenodd" d="M34.0264 0C38.7382 4.19417 43.4508 8.38906 48.1643 12.5847C46.8962 14.1844 44.3648 17.0265 42.1727 17.6616C40.8696 15.1899 36.6327 12.0033 34.2674 10.3756C24.7618 19.1321 15.2562 27.8901 5.75063 36.6495L0.479619 31.7922C0.320529 31.719 0.161429 31.6436 0 31.5704C11.3421 21.0484 22.6843 10.5249 34.0264 0ZM72.8441 0C90.8142 16.4817 108.786 32.9663 126.759 49.4538V49.6756H77.1583C71.2486 44.0819 65.3381 38.4882 59.4268 32.8946C61.1838 31.2776 62.9408 29.6585 64.6978 28.0372C69.8893 32.8213 75.0815 37.6054 80.2745 42.3896H107.83V42.1678C106.552 40.9169 105.274 39.6659 103.995 38.415C93.6942 29.0685 83.3908 19.7221 73.0851 10.3756C67.9732 15.0844 62.8613 19.7946 57.7494 24.5062L19.4089 59.6098C22.1251 62.1849 24.8413 64.7607 27.5575 67.3372C42.7318 81.1706 57.9077 95.0062 73.0851 108.844L107.83 76.83H80.2745C75.1626 81.6141 70.0507 86.3983 64.9388 91.1824C63.0999 89.5633 61.2626 87.9442 59.4268 86.3251V85.6619L77.3969 69.5441H127L73.0851 119C69.8098 115.984 66.5352 112.966 63.2614 109.949C44.9708 93.1696 26.6794 76.3901 8.3873 59.6098V59.1684C29.8714 39.4464 51.357 19.7235 72.8441 0ZM5.27335 82.5701C14.9357 91.3288 24.6004 100.087 34.2674 108.844C36.9812 106.342 39.6967 103.84 42.4137 101.338C44.3297 103.031 46.2466 104.723 48.1643 106.415C44.1714 110.168 40.1778 113.922 36.1834 117.676L34.2674 119L0 87.8709C1.757 86.1033 3.51479 84.3363 5.27335 82.5701Z" fill="#6424FF"/>
</svg>
