<svg width="150" height="52" viewBox="0 0 150 52" fill="none" xmlns="http://www.w3.org/2000/svg">
<path fill-rule="evenodd" clip-rule="evenodd" d="M56.639 28.9148C56.4489 29.2301 56.1971 29.5054 55.8981 29.7249C55.542 29.9836 55.1437 30.1811 54.7202 30.3091C54.1849 30.469 53.6273 30.5453 53.0678 30.535C52.437 30.535 51.8865 30.4397 51.4162 30.249C50.9744 30.0768 50.5735 29.8173 50.2383 29.4867C49.9184 29.1628 49.6702 28.7776 49.5092 28.3551C49.3353 27.9002 49.233 27.422 49.2058 26.9369C49.1734 26.3336 49.1571 25.6664 49.1571 24.9352C49.1571 24.205 49.1734 23.5377 49.2058 22.9335C49.2356 22.4528 49.3378 21.979 49.5092 21.5276C49.6683 21.1007 49.9167 20.7111 50.2383 20.3838C50.5737 20.0534 50.9746 19.7939 51.4162 19.6214C51.8858 19.431 52.4363 19.3357 53.0678 19.3355C53.6273 19.3254 54.185 19.4018 54.7202 19.5621C55.1407 19.6881 55.5354 19.8856 55.8863 20.1456C56.1793 20.3678 56.4266 20.6427 56.6147 20.9557C56.7868 21.2417 56.9023 21.5571 56.9549 21.8852C56.9645 21.9765 56.9932 22.0649 57.0391 22.1449C57.0851 22.2249 57.1474 22.2947 57.2221 22.35C57.3548 22.4491 57.5166 22.5034 57.6833 22.5049H59.6516C59.8266 22.506 59.9956 22.4421 60.1247 22.3261C60.1917 22.2693 60.2434 22.1972 60.2752 22.1162C60.307 22.0351 60.3179 21.9475 60.3069 21.8613C60.25 21.1919 60.082 20.536 59.8095 19.9197C59.5128 19.2422 59.0693 18.6362 58.5099 18.1439C57.9268 17.6197 57.1898 17.1909 56.2988 16.8574C55.4078 16.5239 54.3308 16.3571 53.0678 16.3571C51.9505 16.3571 50.9628 16.5198 50.1047 16.8451C49.2879 17.145 48.5434 17.6076 47.918 18.2039C47.3105 18.7966 46.835 19.5066 46.5217 20.2889C46.1813 21.1338 45.9803 22.0266 45.9261 22.9335C45.8937 23.5375 45.8774 24.2047 45.8774 24.9352C45.8774 25.6657 45.8937 26.3329 45.9261 26.9369C45.9802 27.8441 46.1813 28.7371 46.5217 29.5822C46.8348 30.3646 47.3103 31.0747 47.918 31.6672C48.5432 32.2635 49.2878 32.726 50.1047 33.0254C50.9626 33.3509 51.9503 33.5138 53.0678 33.514C54.3313 33.514 55.4083 33.3473 56.2988 33.0138C57.1894 32.6803 57.9264 32.2512 58.5099 31.7266C59.0672 31.2372 59.5105 30.6357 59.8095 29.9631C60.0849 29.3434 60.2531 28.683 60.3069 28.0091C60.3179 27.923 60.307 27.8356 60.2752 27.7546C60.2434 27.6737 60.1917 27.6016 60.1247 27.545C59.9956 27.429 59.8266 27.3652 59.6516 27.3662H57.6833C57.5202 27.3668 57.3621 27.4214 57.2346 27.5212C57.1628 27.578 57.1032 27.6484 57.0594 27.728C57.0155 27.8077 56.9883 27.8951 56.9792 27.9852C56.9269 28.3134 56.8114 28.6288 56.639 28.9148ZM65.4693 21.0512C64.7783 21.3035 64.1431 21.6837 63.5985 22.1712C63.0743 22.6445 62.6457 23.2103 62.335 23.8392C62.0181 24.4808 61.8326 25.177 61.7889 25.8887C61.7722 26.0313 61.7603 26.2142 61.752 26.4367C61.7436 26.6592 61.7401 26.8817 61.7401 27.1041C61.7401 27.3266 61.7436 27.545 61.752 27.7593C61.7603 27.9736 61.7722 28.1524 61.7889 28.2951C61.8478 29.0057 62.037 29.7 62.3475 30.3446C62.6491 30.9722 63.0742 31.5351 63.5985 32.0009C64.1455 32.4822 64.7802 32.858 65.4693 33.1086C67.0335 33.6491 68.739 33.6491 70.3032 33.1086C70.992 32.8579 71.6264 32.4821 72.1734 32.0009C72.6974 31.535 73.1225 30.9721 73.4243 30.3446C73.7344 29.6998 73.9238 29.0056 73.9836 28.2951C74.0008 28.117 74.0087 27.9382 74.0073 27.7593V26.4367C74.0087 25.5408 73.8141 24.655 73.4368 23.8392C73.1259 23.2105 72.6973 22.6446 72.1734 22.1712C71.6288 21.6838 70.994 21.3036 70.3032 21.0512C68.739 20.5107 67.0335 20.5107 65.4693 21.0512ZM70.8494 26.4845V27.6877C70.8517 27.843 70.8436 27.9982 70.825 28.1524C70.777 28.6452 70.6597 29.0542 70.473 29.3795C70.3044 29.6854 70.0678 29.9501 69.7807 30.1542C69.5106 30.3423 69.2051 30.4759 68.8818 30.5473C68.2259 30.6901 67.5459 30.6901 66.89 30.5473C66.5667 30.4759 66.2612 30.3423 65.9911 30.1542C65.7039 29.9503 65.4672 29.6855 65.2988 29.3795C65.1124 29.054 64.995 28.645 64.9468 28.1524C64.9267 27.9982 64.9146 27.8431 64.9106 27.6877C64.9023 27.4891 64.8981 27.2866 64.8981 27.0803C64.8981 26.8739 64.9023 26.6753 64.9106 26.4845C64.9183 26.2934 64.9301 26.135 64.9468 26.0074C64.9955 25.5153 65.1128 25.1063 65.2988 24.7803C65.4672 24.4745 65.7039 24.2099 65.9911 24.0064C66.261 23.8177 66.5666 23.6839 66.89 23.6126C67.5459 23.4697 68.2259 23.4697 68.8818 23.6126C69.2052 23.6839 69.5108 23.8177 69.7807 24.0064C70.0678 24.2101 70.3043 24.4746 70.473 24.7803C70.6594 25.1065 70.7768 25.5156 70.825 26.0074C70.8428 26.1658 70.851 26.3251 70.8494 26.4845ZM78.8294 21.1106C78.1908 21.4078 77.6205 21.8295 77.1534 22.35C76.6845 22.878 76.3142 23.4831 76.0597 24.1374C75.7929 24.8114 75.641 25.5239 75.6103 26.2463C75.5943 26.4845 75.5862 26.7625 75.5859 27.0803C75.5857 27.3981 75.5938 27.6761 75.6103 27.9143C75.641 28.6367 75.7929 29.3491 76.0597 30.0231C76.314 30.6773 76.6843 31.2822 77.1534 31.8099C77.6203 32.3305 78.1906 32.7523 78.8294 33.0492C79.5168 33.366 80.2686 33.525 81.0279 33.514C81.4814 33.5193 81.9338 33.4712 82.3756 33.3707C82.7358 33.2882 83.086 33.1685 83.4206 33.0138C83.6925 32.8872 83.9492 32.7313 84.1859 32.549C84.368 32.4074 84.5385 32.252 84.6959 32.0842V32.6322C84.6979 32.8023 84.7677 32.9648 84.8903 33.0851C85.0129 33.2053 85.1786 33.2738 85.3519 33.2758H87.1977C87.3711 33.2738 87.5367 33.2053 87.6593 33.0851C87.7819 32.9648 87.8517 32.8023 87.8538 32.6322V17C87.8518 16.83 87.7821 16.6675 87.6594 16.5473C87.5368 16.4271 87.371 16.3589 87.1977 16.3571H85.3519C85.1786 16.3589 85.0128 16.4271 84.8902 16.5473C84.7676 16.6675 84.6978 16.83 84.6959 17V22.0756C84.5387 21.9079 84.3681 21.7528 84.1859 21.6115C83.9495 21.4288 83.6928 21.2728 83.4206 21.1468C83.0861 20.9918 82.7358 20.8719 82.3756 20.7892C81.9338 20.6887 81.4814 20.6406 81.0279 20.6458C80.2686 20.6349 79.5168 20.7939 78.8294 21.1106ZM79.7401 24.1845C80.2905 23.732 80.9626 23.5057 81.7564 23.5054C82.5495 23.5054 83.2176 23.7438 83.7608 24.2207C84.3028 24.697 84.6145 25.3484 84.6959 26.1746C84.7608 26.7765 84.7608 27.3834 84.6959 27.9852C84.6145 28.8431 84.3028 29.5024 83.7608 29.9631C83.2174 30.4244 82.5493 30.6549 81.7564 30.6544C80.9626 30.6544 80.2905 30.4281 79.7401 29.9753C79.1891 29.5229 78.8651 28.7801 78.7682 27.7471C78.7202 27.3036 78.7202 26.8563 78.7682 26.4128C78.8656 25.3802 79.1896 24.6374 79.7401 24.1845ZM90.38 29.6894C90.6337 30.4398 91.0385 31.1326 91.5704 31.7266C92.0895 32.2995 92.7324 32.7513 93.4523 33.0492C94.2333 33.3676 95.0724 33.5257 95.918 33.514C96.8253 33.514 97.623 33.3948 98.3113 33.1564C98.929 32.9533 99.5138 32.6644 100.048 32.2985C100.518 31.9648 100.87 31.6233 101.105 31.2741C101.34 30.9249 101.465 30.6389 101.481 30.4162C101.49 30.3319 101.478 30.2468 101.446 30.1679C101.414 30.0891 101.364 30.0189 101.299 29.9631C101.173 29.8408 101.002 29.7723 100.825 29.7727H98.8818C98.7248 29.7664 98.568 29.7908 98.4206 29.8443C98.2657 29.9164 98.1191 30.0042 97.983 30.1064C97.7405 30.2811 97.4695 30.4141 97.1815 30.4995C96.8573 30.6032 96.4361 30.6549 95.918 30.6544C95.5649 30.6547 95.2134 30.6067 94.8737 30.5118C94.5498 30.424 94.2451 30.2785 93.9748 30.0825C93.7186 29.8953 93.5073 29.6554 93.3556 29.3795C93.1966 29.0822 93.1171 28.7502 93.1247 28.4145H101.238C101.412 28.4125 101.577 28.344 101.7 28.2238C101.823 28.1035 101.892 27.941 101.894 27.7709V26.6988C101.897 25.9055 101.753 25.1183 101.469 24.3756C101.201 23.6612 100.792 23.0055 100.266 22.4455C99.7352 21.8886 99.0948 21.4427 98.3837 21.1345C97.6068 20.8007 96.7661 20.6341 95.918 20.6458C95.0687 20.6341 94.2271 20.8051 93.4523 21.1468C92.7333 21.4675 92.0918 21.9344 91.5704 22.5165C91.04 23.1162 90.6355 23.8127 90.38 24.566C90.1006 25.3757 89.9609 26.2255 89.9667 27.0803C89.956 27.9664 90.0956 28.8482 90.38 29.6894ZM97.194 23.7081C97.4965 23.8243 97.7698 24.0031 97.9955 24.2323C98.1918 24.4372 98.3408 24.6811 98.4324 24.9475C98.5171 25.1916 98.5781 25.4429 98.6147 25.6982H93.1247C93.1636 25.4382 93.2415 25.1853 93.3556 24.9475C93.4817 24.6786 93.659 24.4358 93.8781 24.2323C94.1212 24.0074 94.4054 23.8296 94.7158 23.7081C95.0992 23.5643 95.5076 23.4954 95.918 23.5054C96.4363 23.5054 96.8617 23.573 97.194 23.7081ZM115.789 26.2224C115.792 25.5039 115.707 24.7877 115.534 24.0896C115.378 23.4445 115.084 22.8393 114.672 22.3145C114.244 21.789 113.695 21.372 113.069 21.099C112.404 20.7973 111.578 20.6463 110.59 20.6458C109.813 20.6458 109.141 20.781 108.574 21.0512C108.025 21.3089 107.524 21.6552 107.092 22.0756V21.5276C107.09 21.3577 107.021 21.1953 106.898 21.0751C106.776 20.955 106.61 20.8866 106.437 20.8847H104.59C104.417 20.8867 104.252 20.9551 104.129 21.0752C104.006 21.1953 103.937 21.3577 103.934 21.5276V32.6322C103.937 32.8022 104.007 32.9645 104.129 33.0847C104.252 33.2049 104.417 33.2735 104.59 33.2758H106.437C106.61 33.2736 106.776 33.2051 106.898 33.0848C107.02 32.9646 107.09 32.8022 107.092 32.6322V26.5793C107.092 25.6266 107.339 24.8642 107.833 24.2923C108.327 23.7204 109.003 23.4344 109.862 23.4344C110.8 23.4344 111.497 23.7204 111.951 24.2923C112.404 24.8642 112.631 25.6266 112.631 26.5793V32.6322C112.633 32.8023 112.703 32.9648 112.825 33.0851C112.948 33.2053 113.114 33.2738 113.287 33.2758H115.133C115.306 33.2738 115.472 33.2053 115.594 33.0851C115.717 32.9648 115.787 32.8023 115.789 32.6322V26.2224ZM126.21 32.8704C126.323 32.9733 126.45 33.0614 126.587 33.1325C126.777 33.2329 126.99 33.2823 127.206 33.2758H129.562C129.639 33.276 129.715 33.2613 129.786 33.2326C129.856 33.2039 129.921 33.1617 129.975 33.1086C130.029 33.0555 130.072 32.9924 130.101 32.9229C130.13 32.8535 130.145 32.7791 130.145 32.7039C130.146 32.6297 130.13 32.5564 130.097 32.4896C130.044 32.4011 129.979 32.3206 129.902 32.2507L123.708 26.4128L129.367 21.933C129.497 21.8374 129.574 21.754 129.598 21.6825C129.623 21.6097 129.636 21.5334 129.635 21.4566C129.636 21.3814 129.621 21.3069 129.592 21.2374C129.562 21.1679 129.519 21.1047 129.465 21.0516C129.411 20.9984 129.347 20.9563 129.276 20.9276C129.205 20.899 129.129 20.8844 129.052 20.8847H126.574C126.374 20.8777 126.176 20.9272 126.004 21.0273C125.872 21.1068 125.746 21.1943 125.627 21.2894L121.57 24.5066V17C121.568 16.8301 121.498 16.6677 121.376 16.5476C121.253 16.4275 121.088 16.3592 120.914 16.3571H119.068C118.895 16.359 118.729 16.4274 118.607 16.5475C118.484 16.6677 118.414 16.8301 118.412 17V32.6322C118.415 32.8022 118.484 32.9646 118.607 33.0848C118.729 33.2051 118.895 33.2736 119.068 33.2758H120.914C121.088 33.2735 121.253 33.2049 121.376 33.0847C121.498 32.9645 121.568 32.8022 121.57 32.6322V28.5339L126.21 32.8704ZM131.579 24.3155C131.693 24.4118 131.84 24.4628 131.991 24.4589H134.25C134.387 24.4605 134.523 24.4362 134.651 24.3872C134.799 24.3229 134.935 24.2342 135.052 24.1251C135.248 23.9447 135.469 23.7923 135.708 23.6726C135.934 23.5614 136.25 23.5057 136.655 23.5054C137.303 23.5054 137.845 23.6406 138.283 23.9108C138.72 24.1811 138.938 24.6418 138.939 25.2928L134.979 25.9603C133.651 26.1828 132.59 26.6037 131.797 27.2229C131.004 27.8421 130.607 28.7 130.607 29.7965C130.601 30.3083 130.704 30.8155 130.91 31.2857C131.109 31.7345 131.403 32.1367 131.773 32.4657C132.174 32.8155 132.646 33.0791 133.157 33.2397C133.761 33.4306 134.393 33.5233 135.028 33.514C136.015 33.514 136.829 33.3511 137.469 33.0254C138.109 32.6998 138.598 32.3067 138.939 31.846V32.6322C138.941 32.8023 139.011 32.9648 139.133 33.0851C139.256 33.2053 139.421 33.2738 139.595 33.2758H141.441C141.614 33.2738 141.78 33.2053 141.902 33.0851C142.025 32.9648 142.095 32.8023 142.097 32.6322V25.6266C142.097 24.8165 141.967 24.0976 141.708 23.4699C141.469 22.8719 141.091 22.3372 140.603 21.9091C140.103 21.4842 139.52 21.1639 138.89 20.968C138.167 20.7447 137.413 20.636 136.655 20.6458C135.83 20.6458 135.105 20.7532 134.481 20.968C133.912 21.1539 133.378 21.4316 132.902 21.7897C132.508 22.0859 132.17 22.4493 131.906 22.8625C131.693 23.191 131.541 23.554 131.457 23.9347C131.438 24.003 131.439 24.0751 131.461 24.1426C131.482 24.2101 131.523 24.2702 131.579 24.3155ZM134.287 30.4162C133.938 30.2572 133.764 30.0111 133.764 29.6778C133.759 29.5086 133.796 29.3408 133.872 29.189C133.949 29.0373 134.062 28.9063 134.202 28.8076C134.494 28.5933 134.971 28.4304 135.635 28.319L138.939 27.7471V27.9852C138.938 28.3226 138.863 28.6558 138.72 28.9625C138.566 29.2911 138.343 29.5835 138.064 29.8204C137.747 30.0893 137.38 30.2956 136.983 30.4278C136.51 30.586 136.013 30.6627 135.514 30.6544C135.092 30.6641 134.673 30.5828 134.287 30.4162ZM135.319 18.4059C135.247 18.4943 135.204 18.6026 135.198 18.7158C135.198 18.9703 135.327 19.0975 135.587 19.0973H136.922C137.181 19.0973 137.384 19.0575 137.53 18.9779C137.678 18.8973 137.816 18.8014 137.943 18.6919L140.931 16.2855C140.97 16.2485 141.001 16.204 141.022 16.1548C141.042 16.1057 141.053 16.0528 141.052 15.9995C141.052 15.6822 140.898 15.5234 140.59 15.5231H138.283C138.13 15.5191 137.977 15.5432 137.833 15.5941C137.712 15.6419 137.562 15.7691 137.384 15.9756L135.319 18.4059Z" fill="#023059"/>
<path fill-rule="evenodd" clip-rule="evenodd" d="M15.7698 11C16.8457 11.9869 17.9218 12.9739 18.9981 13.9611C18.7086 14.3375 18.1306 15.0062 17.63 15.1557C17.3324 14.5741 16.3649 13.8243 15.8248 13.4413C13.6543 15.5017 11.4837 17.5624 9.31313 19.6234L8.10952 18.4805C8.07319 18.4633 8.03686 18.4456 8 18.4283C10.5899 15.9526 13.1799 13.4764 15.7698 11ZM24.6337 11C28.7371 14.8781 32.8409 18.7568 36.945 22.6362V22.6884H25.6188C24.2694 21.3722 22.9197 20.0561 21.5699 18.7399C21.9711 18.3594 22.3723 17.9785 22.7735 17.597C23.959 18.7227 25.1446 19.8483 26.3304 20.974H32.6225V20.9218C32.3308 20.6275 32.039 20.3332 31.7469 20.0388C29.3947 17.8397 27.042 15.6405 24.6887 13.4413C23.5214 14.5493 22.3542 15.6576 21.1869 16.7662L12.432 25.0258C13.0522 25.6317 13.6724 26.2378 14.2927 26.844C17.7577 30.099 21.223 33.3544 24.6887 36.6104L32.6225 29.0776H26.3304C25.1631 30.2033 23.9958 31.329 22.8286 32.4547C22.4086 32.0737 21.9891 31.6927 21.5699 31.3118V31.1557L25.6733 27.3633H37L24.6887 39C23.9408 38.2902 23.1931 37.5803 22.4455 36.8702C18.2689 32.9223 14.0922 28.9741 9.91521 25.0258V24.922C14.821 20.2815 19.7272 15.6408 24.6337 11ZM9.20415 30.4283C11.4105 32.4891 13.6174 34.5498 15.8248 36.6104C16.4445 36.0217 17.0646 35.433 17.685 34.8443C18.1225 35.2425 18.5602 35.6407 18.9981 36.0389C18.0864 36.9219 17.1745 37.8051 16.2624 38.6884L15.8248 39L8 31.6755C8.4012 31.2596 8.80259 30.8438 9.20415 30.4283Z" fill="#023059"/>
</svg>
