<svg width="162" height="33" viewBox="0 0 162 33" fill="none" xmlns="http://www.w3.org/2000/svg">
<path fill-rule="evenodd" clip-rule="evenodd" d="M12.2636 4C13.131 4.83894 13.9985 5.67802 14.8661 6.51724C14.6327 6.83723 14.1667 7.40571 13.7632 7.53276C13.5233 7.03835 12.7434 6.40096 12.308 6.07538C10.5582 7.8269 8.80838 9.57871 7.05858 11.3308L6.08829 10.3592C6.059 10.3446 6.02972 10.3295 6 10.3149C8.08787 8.21019 10.1757 6.10524 12.2636 4ZM19.4092 4C22.7172 7.29675 26.0254 10.5941 29.3339 13.892V13.9363H20.2034C19.1155 12.8175 18.0275 11.6986 16.9394 10.5797C17.2628 10.2563 17.5862 9.93243 17.9097 9.60814C18.8653 10.5651 19.8211 11.522 20.777 12.479H25.8494V12.4346C25.6143 12.1844 25.379 11.9342 25.1436 11.6839C23.2473 9.81442 21.3507 7.9449 19.4536 6.07538C18.5126 7.01725 17.5716 7.95941 16.6306 8.90185L9.57281 15.9234C10.0728 16.4385 10.5728 16.9537 11.0728 17.4691C13.8661 20.2361 16.6597 23.0036 19.4536 25.7715L25.8494 19.3679H20.777C19.836 20.3248 18.895 21.2818 17.954 22.2387C17.6155 21.9149 17.2773 21.591 16.9394 21.2671V21.1345L20.2473 17.9105H29.3783L19.4536 27.8029C18.8507 27.1996 18.2479 26.5961 17.6452 25.9924C14.2783 22.6362 10.9112 19.2799 7.54394 15.9234V15.8351C11.4988 11.8902 15.4538 7.94519 19.4092 4ZM6.97072 20.5161C8.74938 22.268 10.5285 24.0198 12.308 25.7715C12.8075 25.271 13.3074 24.7706 13.8076 24.2702C14.1603 24.6087 14.5131 24.9472 14.8661 25.2857C14.1311 26.0363 13.396 26.7871 12.6607 27.5381L12.308 27.8029L6 21.5764C6.32343 21.2228 6.64701 20.8693 6.97072 20.5161Z" fill="#023059"/>
<path fill-rule="evenodd" clip-rule="evenodd" d="M54.7906 21.4249C54.5823 21.7881 54.3064 22.1052 53.9788 22.358C53.5886 22.6559 53.1522 22.8834 52.6883 23.0308C52.1018 23.2151 51.4909 23.3029 50.8779 23.291C50.1868 23.291 49.5836 23.1812 49.0683 22.9617C48.5843 22.7633 48.1451 22.4644 47.7778 22.0836C47.4273 21.7106 47.1554 21.2669 46.979 20.7803C46.7885 20.2564 46.6764 19.7056 46.6466 19.1468C46.6111 18.4519 46.5933 17.6834 46.5933 16.8413C46.5933 16.0002 46.6111 15.2317 46.6466 14.5357C46.6792 13.982 46.7912 13.4363 46.979 12.9164C47.1534 12.4246 47.4255 11.9759 47.7778 11.5989C48.1453 11.2184 48.5845 10.9195 49.0683 10.7209C49.5828 10.5016 50.186 10.3918 50.8779 10.3915C51.4909 10.3799 52.1019 10.468 52.6883 10.6525C53.149 10.7977 53.5814 11.0252 53.9658 11.3246C54.2869 11.5805 54.5578 11.8972 54.7639 12.2577C54.9525 12.5871 55.079 12.9504 55.1366 13.3283C55.1471 13.4335 55.1785 13.5353 55.2289 13.6274C55.2793 13.7195 55.3475 13.7999 55.4293 13.8636C55.5747 13.9777 55.752 14.0403 55.9347 14.0421H58.0911C58.2829 14.0433 58.4681 13.9697 58.6095 13.8361C58.6829 13.7707 58.7396 13.6877 58.7744 13.5943C58.8093 13.5009 58.8212 13.4001 58.8092 13.3008C58.7468 12.5297 58.5627 11.7743 58.2642 11.0644C57.9391 10.2841 57.4532 9.58615 56.8403 9.01902C56.2015 8.41531 55.394 7.92141 54.4178 7.53728C53.4416 7.15315 52.2617 6.96108 50.8779 6.96108C49.6537 6.96108 48.5716 7.14844 47.6315 7.52313C46.7366 7.86852 45.9208 8.40141 45.2357 9.0882C44.57 9.77085 44.0491 10.5886 43.7058 11.4897C43.333 12.4629 43.1127 13.4911 43.0534 14.5357C43.0178 15.2314 43 15.9999 43 16.8413C43 17.6826 43.0178 18.4512 43.0534 19.1468C43.1126 20.1917 43.3329 21.2202 43.7058 22.1937C44.0489 23.0948 44.5699 23.9126 45.2357 24.5951C45.9207 25.2819 46.7365 25.8146 47.6315 26.1594C48.5713 26.5344 49.6535 26.722 50.8779 26.7223C52.2622 26.7223 53.4421 26.5302 54.4178 26.1461C55.3935 25.7619 56.201 25.2677 56.8403 24.6635C57.4509 24.0998 57.9366 23.407 58.2642 22.6323C58.566 21.9186 58.7502 21.158 58.8092 20.3818C58.8212 20.2826 58.8093 20.1819 58.7744 20.0886C58.7396 19.9954 58.6829 19.9124 58.6095 19.8472C58.4681 19.7136 58.2829 19.6401 58.0911 19.6413H55.9347C55.756 19.6419 55.5828 19.7048 55.4431 19.8197C55.3644 19.8852 55.2991 19.9662 55.2511 20.058C55.2031 20.1498 55.1732 20.2505 55.1633 20.3543C55.1059 20.7323 54.9794 21.0956 54.7906 21.4249ZM64.4651 12.3677C63.708 12.6582 63.0122 13.0962 62.4154 13.6577C61.8412 14.2028 61.3716 14.8545 61.0312 15.5788C60.684 16.3178 60.4807 17.1198 60.4328 17.9394C60.4145 18.1037 60.4015 18.3144 60.3924 18.5706C60.3832 18.8269 60.3794 19.0832 60.3794 19.3394C60.3794 19.5957 60.3832 19.8472 60.3924 20.0941C60.4015 20.3409 60.4145 20.5468 60.4328 20.7111C60.4973 21.5296 60.7047 22.3293 61.0449 23.0717C61.3752 23.7946 61.8411 24.443 62.4154 24.9795C63.0148 25.5339 63.7102 25.9667 64.4651 26.2553C66.1789 26.8779 68.0475 26.8779 69.7613 26.2553C70.5159 25.9665 71.211 25.5337 71.8102 24.9795C72.3844 24.4428 72.8501 23.7945 73.1808 23.0717C73.5205 22.3291 73.7281 21.5295 73.7936 20.7111C73.8124 20.506 73.8211 20.3001 73.8195 20.0941V18.5706C73.821 17.5387 73.6079 16.5186 73.1945 15.5788C72.8538 14.8547 72.3842 14.203 71.8102 13.6577C71.2136 13.0964 70.518 12.6584 69.7613 12.3677C68.0475 11.7451 66.1789 11.7451 64.4651 12.3677ZM70.3597 18.6257V20.0115C70.3622 20.1904 70.3533 20.3692 70.333 20.5468C70.2804 21.1144 70.1518 21.5855 69.9473 21.9602C69.7625 22.3125 69.5033 22.6174 69.1888 22.8524C68.8929 23.0691 68.5581 23.223 68.204 23.3052C67.4853 23.4697 66.7403 23.4697 66.0216 23.3052C65.6675 23.223 65.3328 23.0691 65.0368 22.8524C64.7221 22.6176 64.4629 22.3127 64.2784 21.9602C64.0741 21.5852 63.9455 21.1141 63.8927 20.5468C63.8707 20.3692 63.8574 20.1905 63.853 20.0115C63.8439 19.7828 63.8393 19.5496 63.8393 19.3119C63.8393 19.0743 63.8439 18.8455 63.853 18.6257C63.8614 18.4056 63.8744 18.2232 63.8927 18.0762C63.946 17.5094 64.0746 17.0383 64.2784 16.6628C64.4629 16.3106 64.7222 16.0059 65.0368 15.7714C65.3326 15.5542 65.6674 15.4 66.0216 15.3179C66.7403 15.1533 67.4853 15.1533 68.204 15.3179C68.5583 15.4 68.8931 15.5542 69.1888 15.7714C69.5033 16.0061 69.7625 16.3108 69.9473 16.6628C70.1515 17.0386 70.2801 17.5097 70.333 18.0762C70.3525 18.2587 70.3614 18.4421 70.3597 18.6257ZM79.1027 12.4361C78.403 12.7784 77.7782 13.2641 77.2664 13.8636C76.7526 14.4718 76.347 15.1687 76.0682 15.9223C75.7758 16.6986 75.6095 17.5193 75.5758 18.3513C75.5582 18.6257 75.5493 18.9459 75.5491 19.3119C75.5488 19.678 75.5577 19.9982 75.5758 20.2725C75.6095 21.1045 75.7758 21.9252 76.0682 22.7015C76.3468 23.4549 76.7525 24.1516 77.2664 24.7594C77.778 25.3591 78.4028 25.8449 79.1027 26.1869C79.8558 26.5518 80.6795 26.7349 81.5114 26.7223C82.0082 26.7283 82.504 26.6729 82.9879 26.5572C83.3826 26.4621 83.7663 26.3243 84.1328 26.1461C84.4307 26.0003 84.712 25.8207 84.9713 25.6107C85.1708 25.4476 85.3577 25.2686 85.5301 25.0754V25.7066C85.5323 25.9025 85.6088 26.0897 85.7431 26.2282C85.8774 26.3667 86.0589 26.4456 86.2489 26.4479H88.2711C88.4611 26.4456 88.6426 26.3667 88.7769 26.2282C88.9112 26.0897 88.9877 25.9025 88.9899 25.7066V7.70155C88.9878 7.50572 88.9113 7.31854 88.777 7.18013C88.6426 7.04171 88.461 6.96308 88.2711 6.96108H86.2489C86.059 6.96308 85.8774 7.04171 85.743 7.18013C85.6086 7.31854 85.5322 7.50572 85.5301 7.70155V13.5476C85.3578 13.3545 85.171 13.1757 84.9713 13.0131C84.7123 12.8026 84.431 12.623 84.1328 12.4778C83.7664 12.2992 83.3826 12.1611 82.9879 12.0659C82.504 11.9501 82.0082 11.8947 81.5114 11.9008C80.6795 11.8882 79.8558 12.0713 79.1027 12.4361ZM80.1005 15.9766C80.7034 15.4554 81.4398 15.1947 82.3095 15.1944C83.1785 15.1944 83.9105 15.469 84.5056 16.0182C85.0994 16.5669 85.4409 17.3171 85.5301 18.2688C85.6012 18.962 85.6012 19.661 85.5301 20.3543C85.4409 21.3424 85.0994 22.1017 84.5056 22.6323C83.9103 23.1637 83.1783 23.4291 82.3095 23.4286C81.4398 23.4286 80.7034 23.1679 80.1005 22.6464C79.4968 22.1253 79.1418 21.2698 79.0356 20.0799C78.983 19.5691 78.983 19.054 79.0356 18.5431C79.1423 17.3538 79.4973 16.4983 80.1005 15.9766ZM91.7577 22.3171C92.0357 23.1814 92.4792 23.9793 93.0619 24.6635C93.6306 25.3233 94.3351 25.8438 95.1238 26.1869C95.9794 26.5536 96.8988 26.7357 97.8252 26.7223C98.8192 26.7223 99.6933 26.585 100.447 26.3104C101.124 26.0765 101.765 25.7437 102.35 25.3223C102.865 24.9379 103.25 24.5446 103.508 24.1424C103.765 23.7401 103.903 23.4108 103.92 23.1542C103.93 23.0571 103.917 22.9591 103.882 22.8683C103.847 22.7775 103.792 22.6966 103.721 22.6323C103.582 22.4914 103.396 22.4126 103.201 22.413H101.072C100.9 22.4058 100.729 22.4339 100.567 22.4955C100.397 22.5786 100.237 22.6797 100.088 22.7974C99.822 22.9987 99.525 23.1518 99.2095 23.2501C98.8543 23.3696 98.3929 23.4291 97.8252 23.4286C97.4383 23.4289 97.0532 23.3736 96.6811 23.2643C96.3262 23.1632 95.9924 22.9956 95.6963 22.7699C95.4156 22.5542 95.184 22.2779 95.0179 21.9602C94.8436 21.6178 94.7565 21.2353 94.7648 20.8487H103.654C103.844 20.8463 104.026 20.7675 104.16 20.629C104.294 20.4905 104.371 20.3033 104.373 20.1074V18.8725C104.376 17.9588 104.218 17.0521 103.907 16.1967C103.613 15.3739 103.165 14.6186 102.589 13.9737C102.007 13.3322 101.306 12.8186 100.527 12.4636C99.6755 12.0792 98.7544 11.8872 97.8252 11.9008C96.8947 11.8873 95.9726 12.0842 95.1238 12.4778C94.336 12.8472 93.6332 13.3849 93.0619 14.0554C92.4808 14.7462 92.0376 15.5483 91.7577 16.416C91.4516 17.3486 91.2985 18.3274 91.3049 19.3119C91.2931 20.3326 91.4461 21.3482 91.7577 22.3171ZM99.2232 15.4279C99.5546 15.5617 99.8541 15.7676 100.101 16.0316C100.316 16.2676 100.48 16.5486 100.58 16.8554C100.673 17.1366 100.74 17.4261 100.78 17.7201H94.7648C94.8075 17.4206 94.8928 17.1293 95.0179 16.8554C95.1559 16.5457 95.3503 16.266 95.5903 16.0316C95.8567 15.7726 96.168 15.5678 96.5081 15.4279C96.9281 15.2622 97.3756 15.1829 97.8252 15.1944C98.3931 15.1944 98.8591 15.2723 99.2232 15.4279ZM119.596 18.3238C119.6 17.4963 119.506 16.6714 119.316 15.8673C119.146 15.1242 118.824 14.4272 118.372 13.8227C117.904 13.2174 117.302 12.7372 116.616 12.4227C115.888 12.0753 114.983 11.9013 113.9 11.9008C113.049 11.9008 112.313 12.0564 111.691 12.3677C111.09 12.6645 110.541 13.0633 110.068 13.5476V12.9164C110.066 12.7207 109.989 12.5336 109.855 12.3952C109.721 12.2568 109.54 12.1781 109.35 12.1759H107.327C107.137 12.1783 106.956 12.257 106.821 12.3953C106.687 12.5337 106.61 12.7207 106.608 12.9164V25.7066C106.611 25.9024 106.687 26.0894 106.821 26.2278C106.956 26.3663 107.137 26.4452 107.327 26.4479H109.35C109.54 26.4454 109.721 26.3664 109.855 26.2279C109.989 26.0894 110.066 25.9024 110.068 25.7066V18.7349C110.068 17.6376 110.338 16.7595 110.88 16.1008C111.421 15.4421 112.162 15.1127 113.102 15.1127C114.131 15.1127 114.893 15.4421 115.391 16.1008C115.888 16.7595 116.136 17.6376 116.136 18.7349V25.7066C116.138 25.9025 116.215 26.0897 116.349 26.2282C116.484 26.3667 116.665 26.4456 116.855 26.4479H118.877C119.067 26.4456 119.249 26.3667 119.383 26.2282C119.517 26.0897 119.594 25.9025 119.596 25.7066V18.3238ZM131.013 25.981C131.138 26.0995 131.277 26.2009 131.426 26.2828C131.634 26.3985 131.868 26.4554 132.105 26.4479H134.686C134.77 26.4481 134.853 26.4311 134.931 26.3981C135.009 26.365 135.079 26.3165 135.138 26.2553C135.198 26.1941 135.245 26.1214 135.277 26.0415C135.309 25.9615 135.325 25.8757 135.325 25.7892C135.326 25.7037 135.308 25.6192 135.272 25.5424C135.214 25.4404 135.143 25.3477 135.059 25.2672L128.272 18.5431L134.473 13.3833C134.615 13.2733 134.699 13.1771 134.726 13.0948C134.753 13.0109 134.767 12.9231 134.766 12.8346C134.767 12.748 134.75 12.6622 134.718 12.5822C134.686 12.5021 134.639 12.4294 134.58 12.3681C134.521 12.3069 134.45 12.2584 134.372 12.2254C134.295 12.1924 134.212 12.1756 134.128 12.1759H131.413C131.193 12.1678 130.976 12.2248 130.787 12.3402C130.644 12.4317 130.506 12.5325 130.374 12.6421L125.93 16.3476V7.70155C125.928 7.50582 125.851 7.31885 125.717 7.18051C125.583 7.04217 125.401 6.96342 125.212 6.96108H123.189C122.999 6.96328 122.817 7.042 122.683 7.1804C122.549 7.31879 122.473 7.50585 122.47 7.70155V25.7066C122.473 25.9024 122.549 26.0894 122.683 26.2279C122.817 26.3664 122.999 26.4454 123.189 26.4479H125.212C125.401 26.4452 125.583 26.3663 125.717 26.2278C125.851 26.0894 125.928 25.9024 125.93 25.7066V20.9862L131.013 25.981ZM136.895 16.1275C137.021 16.2384 137.182 16.2972 137.347 16.2926H139.823C139.973 16.2945 140.122 16.2665 140.262 16.2101C140.424 16.136 140.572 16.0339 140.701 15.9082C140.916 15.7004 141.157 15.5249 141.419 15.387C141.668 15.2589 142.014 15.1947 142.458 15.1944C143.167 15.1944 143.762 15.3501 144.241 15.6614C144.719 15.9727 144.959 16.5033 144.959 17.2532L140.621 18.022C139.166 18.2782 138.004 18.763 137.135 19.4762C136.266 20.1894 135.831 21.1775 135.831 22.4405C135.824 23.0299 135.937 23.6142 136.163 24.1557C136.381 24.6726 136.703 25.1359 137.108 25.5148C137.548 25.9177 138.065 26.2214 138.625 26.4063C139.287 26.6262 139.979 26.733 140.675 26.7223C141.756 26.7223 142.648 26.5346 143.349 26.1594C144.05 25.7845 144.587 25.3317 144.959 24.8011V25.7066C144.962 25.9025 145.038 26.0897 145.172 26.2282C145.307 26.3667 145.488 26.4456 145.678 26.4479H147.7C147.89 26.4456 148.072 26.3667 148.206 26.2282C148.34 26.0897 148.417 25.9025 148.419 25.7066V17.6376C148.419 16.7045 148.277 15.8765 147.993 15.1536C147.732 14.4647 147.317 13.8489 146.783 13.3558C146.235 12.8664 145.597 12.4975 144.906 12.2718C144.114 12.0147 143.288 11.8895 142.458 11.9008C141.553 11.9008 140.759 12.0245 140.076 12.2718C139.452 12.4859 138.867 12.8058 138.346 13.2183C137.913 13.5594 137.544 13.978 137.254 14.454C137.021 14.8323 136.854 15.2504 136.762 15.6889C136.741 15.7675 136.743 15.8506 136.766 15.9284C136.79 16.0061 136.835 16.0753 136.895 16.1275ZM139.863 23.1542C139.481 22.9711 139.29 22.6876 139.29 22.3037C139.284 22.1089 139.325 21.9156 139.409 21.7408C139.492 21.566 139.616 21.4151 139.77 21.3015C140.089 21.0546 140.613 20.867 141.34 20.7386L144.959 20.0799V20.3543C144.958 20.7428 144.877 21.1266 144.72 21.4799C144.551 21.8583 144.306 22.1952 144.001 22.468C143.654 22.7777 143.251 23.0153 142.817 23.1676C142.299 23.3498 141.754 23.4381 141.207 23.4286C140.745 23.4398 140.286 23.3461 139.863 23.1542ZM140.994 9.32088C140.915 9.42264 140.868 9.54739 140.861 9.67776C140.861 9.97097 141.003 10.1174 141.287 10.1172H142.75C143.034 10.1172 143.256 10.0713 143.416 9.97962C143.578 9.88682 143.729 9.77639 143.869 9.65024L147.142 6.87854C147.185 6.83592 147.218 6.78472 147.241 6.72808C147.264 6.67143 147.276 6.61055 147.275 6.54917C147.275 6.18365 147.106 6.00076 146.769 6.00049H144.241C144.073 5.99588 143.906 6.02361 143.748 6.08225C143.615 6.13727 143.451 6.28375 143.256 6.52167L140.994 9.32088Z" fill="white"/>
</svg>
